<?xml version="1.0" encoding="UTF-8"?>
<svg width="1024" height="1024" viewBox="0 0 256 256" xmlns="http://www.w3.org/2000/svg" role="img" aria-labelledby="titleDesc">
  <title id="titleDesc">Expenses Tracker Logo</title>
  <!-- Blue rounded square background -->
  <rect x="0" y="0" width="256" height="256" rx="32" ry="32" fill="#3b82f6"/>

  <!-- White document with folded corner -->
  <g transform="translate(48,32) scale(0.75)">
    <!-- Document body -->
    <path d="M8 0h112a8 8 0 0 1 8 8v136a8 8 0 0 1-8 8H8a8 8 0 0 1-8-8V8A8 8 0 0 1 8 0z" fill="#ffffff"/>
    <!-- Folded corner -->
    <path d="M104 0v32a8 8 0 0 0 8 8h32" fill="#ffffff" opacity="0.95"/>
    <path d="M104 0h32l-32 32z" fill="#3b82f6"/>

    <!-- Dollar sign -->
    <g transform="translate(24,28) scale(1)">
      <path d="M36 8c0-4.4-3.6-8-8-8s-8 3.6-8 8c0 4 2.8 7.3 6.6 7.9C34.6 18.6 44 24.5 44 36c0 12.1-9.9 20-20 20s-20-7.9-20-20" fill="none" stroke="#3b82f6" stroke-width="6" stroke-linecap="round" stroke-linejoin="round"/>
      <path d="M28 4v8M28 60v8" stroke="#3b82f6" stroke-width="6" stroke-linecap="round"/>
    </g>

    <!-- Bar chart (three ascending bars) -->
    <g transform="translate(24,84)">
      <rect x="0" y="28" width="12" height="28" rx="2" fill="#3b82f6"/>
      <rect x="20" y="18" width="12" height="38" rx="2" fill="#3b82f6"/>
      <rect x="40" y="6"  width="12" height="50" rx="2" fill="#3b82f6"/>
    </g>
  </g>

  <!-- Text: EXPENSES TRACKER -->
  <text x="50%" y="88%" text-anchor="middle" font-family="Segoe UI, Roboto, Arial, sans-serif" font-weight="700" font-size="20" fill="#ffffff" letter-spacing="1">
    EXPENSES TRACKER
  </text>
</svg>
